<?xml version="1.0" encoding="UTF-8" standalone="no"?>
<svg width="125px" height="13px" viewBox="0 0 125 13" version="1.1" xmlns="http://www.w3.org/2000/svg" xmlns:xlink="http://www.w3.org/1999/xlink">
    <!-- Generator: Sketch 3.6.1 (26313) - http://www.bohemiancoding.com/sketch -->
    <title>springer nature</title>
    <desc>Created with Sketch.</desc>
    <defs>
        <path id="path-1" d="M0.0681818182,0.464772727 L124.517045,0.464772727 L124.517045,12.4318182 L0.0681818182,12.4318182 L0.0681818182,0.464772727 Z"></path>
    </defs>
    <g id="Homepage" stroke="none" stroke-width="1" fill="none" fill-rule="evenodd">
        <g id="Homepage-Mosaic-Shoe-horned" transform="translate(-131.000000, -859.000000)">
            <g id="Group" transform="translate(128.000000, 830.000000)">
                <g id="springer-nature" transform="translate(3.000000, 29.000000)">
                    <g id="Group-3">
                        <mask id="mask-2" fill="white">
                            <use xlink:href="#path-1"></use>
                        </mask>
                        <g id="Clip-2"></g>
                        <path d="M67.1,5.17954545 C67.1,2.69318182 64.9704545,1.80795455 62.9784091,1.80795455 C61.9613636,1.80795455 60.4318182,1.80795455 59.55,1.8375 L59.55,12.1795455 L62.1295455,12.1795455 L62.1295455,9.02272727 L62.9136364,9.02272727 C63.0704545,9.02272727 63.2181818,9.01704545 63.3545455,9.00795455 L63.375,9.00568182 L63.3875,9.02272727 C63.8159091,9.70568182 64.3613636,10.8056818 64.5363636,12.1795455 C65.1022727,12.1795455 65.5420455,12.1795455 65.9125,12.1818182 L66.6409091,12.1818182 L66.6431818,12.1818182 C66.8886364,12.1818182 67.1170455,12.1818182 67.3590909,12.1795455 C67.1193182,10.5977273 66.2568182,9.0125 65.7568182,8.20454545 L65.7420455,8.175 L65.7659091,8.15795455 C66.6261364,7.47386364 67.1,6.41704545 67.1,5.17954545 L67.1,5.17954545 Z M64.3636364,5.54090909 C64.3636364,6.60795455 63.9113636,7.08409091 62.8977273,7.08409091 C62.5727273,7.08409091 62.3590909,7.08409091 62.1625,7.06818182 L62.1295455,7.06590909 L62.1295455,3.76704545 L62.1636364,3.76477273 C62.3920455,3.74886364 62.6897727,3.74886364 62.9295455,3.74886364 C64.1238636,3.74886364 64.3636364,4.43409091 64.3636364,5.54090909 L64.3636364,5.54090909 Z M57.6522727,12.1795455 L57.6522727,10.1568182 L53.95,10.1568182 L53.95,7.88409091 L57.2943182,7.88409091 L57.2943182,5.88295455 L53.95,5.88295455 L53.95,3.84204545 L57.6034091,3.84204545 L57.6034091,1.82386364 L51.4818182,1.82386364 L51.4818182,10.3465909 C51.4818182,10.3556818 51.4670455,11.1647727 52.0056818,11.7193182 C52.3409091,12.0681818 52.8204545,12.2454545 53.4295455,12.2477273 C55.3068182,12.2590909 57.3625,12.1909091 57.6522727,12.1795455 L57.6522727,12.1795455 Z M46.0886364,12.5 C47.0909091,12.5 48.5988636,12.2420455 49.7227273,11.6647727 L49.7227273,6.51590909 L46.3204545,6.51590909 L46.3204545,8.28295455 L47.3943182,8.28295455 L47.3943182,10.3965909 L47.3704545,10.4056818 C47.1113636,10.4988636 46.4931818,10.5477273 46.2352273,10.5477273 C44.8727273,10.5477273 44.3420455,9.54204545 44.3420455,6.96590909 C44.3420455,4.70113636 45.1261364,3.60113636 46.7386364,3.60113636 C47.2772727,3.60113636 48.0636364,3.84090909 48.9011364,4.26022727 L49.6,2.53409091 C48.6636364,1.94659091 47.4443182,1.59659091 46.3329545,1.59659091 C44.7693182,1.59659091 43.6420455,2.03409091 42.8863636,2.93522727 C42.1363636,3.83068182 41.7727273,5.15909091 41.7727273,6.99659091 C41.7727273,11.0090909 42.9431818,12.5 46.0886364,12.5 L46.0886364,12.5 Z M37.3909091,12.1795455 L40.1102273,12.1795455 L40.1102273,1.82386364 L37.8272727,1.82386364 L37.8272727,8.59886364 L34.7375,1.82386364 L31.9159091,1.82386364 L31.9159091,12.1795455 L34.1875,12.1795455 L34.1875,5.64659091 L37.3909091,12.1795455 L37.3909091,12.1795455 Z M27.0715909,12.1795455 L29.6488636,12.1795455 L29.6488636,1.83977273 L27.0715909,1.83977273 L27.0715909,12.1795455 Z M23.8375,8.20454545 L23.8204545,8.175 L23.8454545,8.15795455 C24.7056818,7.47386364 25.1795455,6.41590909 25.1795455,5.17954545 C25.1795455,2.69318182 23.0511364,1.80795455 21.0579545,1.80795455 C20.0409091,1.80795455 18.5113636,1.80795455 17.6295455,1.8375 L17.6295455,12.1795455 L20.2090909,12.1795455 L20.2090909,9.02272727 L20.9931818,9.02272727 C21.15,9.02272727 21.2977273,9.01704545 21.4340909,9.00795455 L21.4556818,9.00568182 L21.4670455,9.02272727 C21.8954545,9.70568182 22.4409091,10.8056818 22.6159091,12.1795455 C23.1818182,12.1795455 23.6215909,12.1795455 23.9920455,12.1818182 L24.7204545,12.1818182 L24.7215909,12.1818182 C24.9693182,12.1818182 25.1977273,12.1818182 25.4386364,12.1795455 C25.2,10.5977273 24.3340909,9.0125 23.8375,8.20454545 L23.8375,8.20454545 Z M22.4431818,5.54090909 C22.4431818,6.60795455 21.9909091,7.08409091 20.9772727,7.08409091 C20.6534091,7.08409091 20.4386364,7.08409091 20.2431818,7.06818182 L20.2090909,7.06590909 L20.2090909,3.76704545 L20.2431818,3.76477273 C20.4715909,3.74886364 20.7693182,3.74886364 21.0090909,3.74886364 C22.2034091,3.74886364 22.4431818,4.43409091 22.4431818,5.54090909 L22.4431818,5.54090909 Z M16.3340909,5.14318182 C16.3340909,2.99204545 14.9704545,1.80795455 12.4931818,1.80795455 C11.4761364,1.80795455 9.94659091,1.80795455 9.06477273,1.8375 L9.06477273,12.1795455 L11.6443182,12.1795455 L11.6443182,9.02272727 L12.4284091,9.02272727 C13.6022727,9.02272727 16.3340909,8.64545455 16.3340909,5.14318182 L16.3340909,5.14318182 Z M13.8784091,5.54090909 C13.8784091,6.60795455 13.4261364,7.08409091 12.4125,7.08409091 C12.0875,7.08409091 11.8738636,7.08409091 11.6772727,7.06818182 L11.6443182,7.06477273 L11.6443182,3.76704545 L11.6784091,3.76477273 C11.9068182,3.74886364 12.2045455,3.74886364 12.4443182,3.74886364 C13.6386364,3.74886364 13.8784091,4.43522727 13.8784091,5.54090909 L13.8784091,5.54090909 Z M2.97159091,3.80454545 C2.97159091,3.225 3.34772727,2.63977273 4.1875,2.63977273 C4.79659091,2.63977273 5.51931818,2.84204545 6.46022727,3.275 L7.39659091,1.40681818 C6.30909091,0.772727273 5.19318182,0.464772727 3.98863636,0.464772727 C1.65,0.464772727 0.253409091,1.71931818 0.253409091,3.81931818 C0.253409091,5.91931818 1.88636364,6.73068182 3.19886364,7.38181818 C4.15113636,7.85454545 4.97272727,8.26363636 4.97272727,9.03295455 C4.97272727,9.69659091 4.38068182,10.1443182 3.5,10.1443182 C2.79431818,10.1443182 1.93295455,9.88409091 0.938636364,9.37272727 L0,11.3761364 C1.25795455,12.0863636 2.40568182,12.4045455 3.71818182,12.4045455 C6.14772727,12.4045455 7.59886364,11.0602273 7.59886364,8.80795455 C7.59886364,6.67840909 5.96704545,5.91363636 4.65568182,5.3 C3.75227273,4.87727273 2.97159091,4.51136364 2.97159091,3.80454545 L2.97159091,3.80454545 Z" id="Fill-1" fill="#4A4E4D" mask="url(#mask-2)"></path>
                    </g>
                    <path d="M120.817045,10.1568182 L120.817045,7.88409091 L124.161364,7.88409091 L124.161364,5.88295455 L120.817045,5.88295455 L120.817045,3.84204545 L124.470455,3.84204545 L124.470455,1.82386364 L118.347727,1.82386364 L118.347727,10.3465909 C118.347727,10.3556818 118.334091,11.1647727 118.871591,11.7193182 C119.207955,12.0681818 119.6875,12.2454545 120.295455,12.2488636 C122.172727,12.2590909 124.228409,12.1909091 124.517045,12.1795455 L124.517045,10.1568182 L120.817045,10.1568182 L120.817045,10.1568182 Z M115.239773,8.20454545 L115.223864,8.17613636 L115.248864,8.15795455 C116.109091,7.47386364 116.582955,6.41590909 116.582955,5.17954545 C116.582955,2.69318182 114.454545,1.80795455 112.461364,1.80795455 C111.444318,1.80795455 109.914773,1.80795455 109.031818,1.8375 L109.031818,12.1795455 L111.6125,12.1795455 L111.6125,9.02272727 L112.396591,9.02272727 C112.553409,9.02272727 112.701136,9.01704545 112.8375,9.00795455 L112.856818,9.00568182 L112.869318,9.02272727 C113.297727,9.70568182 113.844318,10.8056818 114.019318,12.1795455 C114.585227,12.1795455 115.025,12.1795455 115.395455,12.1818182 L116.123864,12.1818182 C116.371591,12.1818182 116.602273,12.1818182 116.842045,12.1795455 C116.602273,10.5977273 115.738636,9.0125 115.239773,8.20454545 L115.239773,8.20454545 Z M113.846591,5.54204545 C113.846591,6.60795455 113.393182,7.08409091 112.380682,7.08409091 C112.056818,7.08409091 111.843182,7.08409091 111.646591,7.06818182 L111.6125,7.06590909 L111.6125,3.76704545 L111.646591,3.76477273 C111.875,3.74886364 112.172727,3.74886364 112.4125,3.74886364 C113.606818,3.74886364 113.846591,4.43522727 113.846591,5.54204545 L113.846591,5.54204545 Z M107.125,8.47159091 L107.125,1.82386364 L104.454545,1.82386364 L104.454545,8.71931818 C104.454545,9.77954545 104.393182,10.4284091 103.205682,10.4284091 C102.067045,10.4284091 101.876136,9.89659091 101.876136,8.70340909 L101.876136,1.82386364 L99.2056818,1.82386364 L99.2056818,8.84318182 C99.2056818,11.3136364 100.403409,12.4147727 103.092045,12.4147727 C105.844318,12.4147727 107.125,11.1625 107.125,8.47159091 L107.125,8.47159091 Z M95.6704545,3.93522727 L97.6534091,3.93522727 L97.6534091,1.82386364 L90.6590909,1.82386364 L90.6590909,3.93522727 L92.9852273,3.93522727 L92.9852273,12.1795455 L95.6704545,12.1795455 L95.6704545,3.93522727 L95.6704545,3.93522727 Z M87.7897727,12.1795455 L90.5636364,12.1795455 L88.075,1.82386364 L84.0522727,1.82386364 L81.5306818,12.1795455 L84.1613636,12.1795455 L84.5329545,10.5352273 L87.4181818,10.5352273 L87.7897727,12.1795455 L87.7897727,12.1795455 Z M87.1147727,8.57954545 L84.8352273,8.57954545 L85.9090909,4.07613636 L86.0159091,4.07613636 L86.0227273,4.10340909 L87.1147727,8.57954545 L87.1147727,8.57954545 Z M76.9954545,12.1795455 L80.0454545,12.1795455 L80.0454545,0.570454545 L77.5647727,0.570454545 L77.6670455,8.66931818 L73.8727273,0.570454545 L70.8613636,0.570454545 L70.8613636,12.1795455 L73.25,12.1795455 L73.2295455,4.16818182 L73.2988636,4.3125 L76.9954545,12.1795455 L76.9954545,12.1795455 Z" id="Fill-4" fill="#4A4E4D"></path>
                </g>
            </g>
        </g>
    </g>
</svg>