<svg width="359" height="37" viewBox="0 0 359 37" xmlns="http://www.w3.org/2000/svg"><title>Group</title><g fill="none" fill-rule="evenodd"><path d="M290.602 25.714c.45-.19.619-.379.619-.811V16.87c0-1.325-1.266-3.056-4.161-3.056h-.169c-3.232 0-4.61 2.19-4.61 5.571v1.65c0 3.11 1.012 5.381 4.723 5.381h.253a8.362 8.362 0 0 0 3.345-.703zm.562-11.629h.057v-5.84c0-.488.084-.569.618-.569h.45c.534 0 .59.081.59.595v16.497c0 1.514-.028 1.676-.787 2.028-1.377.676-2.895 1.108-4.92 1.108h-.28c-4.527 0-6.326-2.65-6.326-6.814v-1.812c0-4.138 2.137-6.95 6.044-6.95h.113c1.94 0 3.401.621 4.441 1.757zm6.914 12.955V13.192c0-.433.084-.541.562-.541h.534c.507 0 .591.081.591.514v13.873c0 .46-.112.568-.59.568h-.535c-.45 0-.562-.081-.562-.568zm-.112-17.309V8.244c0-.487.084-.568.618-.568h.647c.562 0 .618.081.618.568v1.487c0 .487-.084.568-.646.568h-.59c-.535 0-.647-.08-.647-.568zm16.078 4.354c-.758-.162-1.826-.27-3.035-.27-3.542 0-5.426 1.65-5.426 5.166v1.108c0 2.867 1.012 5.436 4.189 5.436h.31c2.923 0 4.469-2.326 4.469-3.949v-6.868c0-.406-.056-.515-.507-.623zm-4.104 12.9h-.309c-3.401 0-5.762-2.217-5.762-6.869v-1.19c0-3.705 2.08-6.598 7.056-6.598 1.686 0 3.064.162 4.554.513.647.136.73.27.73.893v10.574c0 4.867-.533 8.816-6.324 8.816-1.659 0-3.12-.352-4.414-.947-.365-.162-.59-.35-.59-.595 0-.162.056-.35.168-.54.085-.217.197-.406.422-.406.168 0 .337.054.787.243.815.325 1.996.758 3.71.758 3.6 0 4.583-2.002 4.583-6.734h-.056c-1.096 1.325-2.643 2.082-4.555 2.082zm11.44.055V13.192c0-.433.085-.541.563-.541h.534c.506 0 .59.081.59.514v13.873c0 .46-.112.568-.59.568h-.534c-.45 0-.562-.081-.562-.568zm-.112-17.309V8.244c0-.487.085-.568.618-.568h.647c.563 0 .618.081.618.568v1.487c0 .487-.084.568-.645.568h-.591c-.534 0-.647-.08-.647-.568zm7.28-.919l.507-.216c.224-.108.365-.136.477-.136.338 0 .366.163.366.595v3.894h4.216c.535 0 .647.082.647.569v.35c0 .461-.084.569-.675.569h-4.188v9.384c0 1.514.534 2.542 2.164 2.542 1.181 0 2.193-.487 2.502-.487.169 0 .281.081.422.406.14.298.225.46.225.649s-.169.27-.366.352c-.45.19-1.518.568-2.952.568-2.164 0-3.682-1.11-3.682-4.03v-9.384h-1.265c-.478 0-.562-.135-.562-.46v-.108c0-.351.196-.406.955-.568.675-.135.872-.595.872-1.082V9.407c0-.324.057-.46.337-.595m14.962 11.013c-.023.138-.337.17-.337.17-3.574.282-4.674 1.43-4.674 3.474 0 2.191 1.321 2.975 3.233 2.975 2.811 0 4.61-1.704 4.61-5.03v-4.11c0-2.272-.9-3.516-3.823-3.516-1.265 0-2.277.162-3.542.649-.31.108-.59.19-.788.19-.252 0-.365-.136-.505-.46-.057-.135-.14-.325-.14-.514 0-.27.337-.406 1.067-.676a11.672 11.672 0 0 1 3.88-.65c4.47 0 5.51 2.218 5.51 5.03v6.275c0 1.325.31 2.19.759 2.893.169.244.28.433.28.568 0 .19-.111.298-.364.46l-.254.135c-.168.108-.309.19-.478.19-.168 0-.28-.055-.534-.406-.365-.568-.787-1.569-.843-2.272h-.056c-1.012 1.622-2.53 2.704-5.032 2.704-2.783 0-4.667-1.352-4.667-4.407 0-3.024 1.896-4.58 6.378-4.91 0 0 .165-.025.247.11.083.134.149.728.073 1.128m13.035 6.511c.844 0 1.49-.351 1.715-.351.169 0 .253.08.366.405.112.27.197.432.197.65 0 .27-.338.378-.592.486a6.305 6.305 0 0 1-1.939.325c-2.193 0-3.233-1.434-3.233-4.084V8.244c0-.487.113-.568.59-.568h.535c.478 0 .562.108.562.568v15.47c0 2.135.703 2.622 1.8 2.622" fill="#333"/><path d="M264.156.69v35.33" stroke="#DAE3E8"/><path d="M9.392 15.13c-1.782-.793-3.32-1.476-3.32-2.8 0-1.084.742-2.18 2.395-2.18 1.201 0 2.625.378 4.48 1.188l1.846-3.496c-2.144-1.187-4.342-1.763-6.718-1.763-4.61 0-7.363 2.348-7.363 6.28 0 3.93 3.22 5.447 5.806 6.668 1.876.884 3.497 1.65 3.497 3.09 0 1.243-1.167 2.078-2.903 2.078-1.391 0-3.09-.484-5.05-1.441l-1.85 3.745c2.48 1.334 4.743 1.928 7.331 1.928 4.789 0 7.649-2.516 7.649-6.732 0-3.986-3.217-5.417-5.8-6.565zM24.84 8.594c-2.005 0-5.02 0-6.76.056v19.355h5.086V22.1h1.546c2.314 0 7.7-.708 7.7-7.266 0-4.025-2.69-6.24-7.572-6.24zm-.16 9.874c-.64 0-1.062 0-1.45-.03l-.065-.006v-6.174l.066-.004c.45-.03 1.04-.03 1.51-.03 2.354 0 2.827 1.284 2.827 3.354.003 2-.89 2.89-2.888 2.89zm22.49 2.046l.05-.036c1.696-1.28 2.63-3.26 2.63-5.574 0-4.653-4.196-6.31-8.125-6.31-2.005 0-5.022 0-6.758.056v19.355h5.086V22.1H41.6c.308 0 .6-.016.868-.032l.042-.004.022.033c.845 1.278 1.92 3.336 2.267 5.907h5.564c-.471-2.959-2.177-5.93-3.157-7.442l-.035-.049zm-5.605-2.046c-.64 0-1.06 0-1.448-.028l-.066-.005V12.26l.066-.004c.45-.03 1.04-.03 1.511-.03 2.354 0 2.826 1.284 2.826 3.356 0 1.996-.89 2.886-2.89 2.886zm12.014 9.537l5.08.003V8.625h-5.08v19.38zm21.2-6.699L68.69 8.623h-5.56v19.38h4.476V15.779l6.316 12.226h5.36V8.624H74.78v12.682zm16.746-.593h2.116v3.96l-.047.016c-.511.173-1.73.264-2.238.264-2.686 0-3.734-1.879-3.734-6.704 0-4.238 1.546-6.299 4.726-6.299 1.062 0 2.612.45 4.263 1.235l1.377-3.232c-1.846-1.1-4.249-1.755-6.44-1.755-3.084 0-5.306.82-6.795 2.507-1.477 1.676-2.197 4.162-2.197 7.601 0 7.51 2.307 10.303 8.509 10.303 1.975 0 4.948-.485 7.163-1.567v-9.634h-6.703v3.305zm15.039-.745h6.594v-3.746h-6.594V12.4h7.201V8.623H101.7v15.953c0 .017-.03 1.534 1.031 2.572.662.65 1.608.981 2.808.988 3.7.02 7.753-.109 8.324-.128v-3.786h-7.298v-4.254h.001zm23.276.596l-.034-.05.05-.036c1.696-1.28 2.63-3.26 2.63-5.574 0-4.653-4.196-6.31-8.124-6.31-2.004 0-5.021 0-6.758.056v19.355h5.086V22.1h1.546c.309 0 .599-.016.868-.032l.042-.004.023.033c.844 1.278 1.92 3.336 2.266 5.907H133c-.474-2.958-2.18-5.928-3.16-7.44zm-5.639-2.096c-.64 0-1.06 0-1.448-.028l-.065-.005V12.26l.065-.004c.45-.03 1.04-.03 1.511-.03 2.354 0 2.828 1.284 2.828 3.356 0 1.996-.89 2.886-2.891 2.886z" fill="#1A2D59"/><path d="M153.317 21.436l-7.48-15.158h-5.934v21.727h4.668l.002-14.994 7.423 14.994h6.014V6.278h-4.693v15.158zm25.614-8.862h4.582v15.43h5.3v-15.43h3.905V8.622H178.93v3.952zm27.192 8.956c0 1.984-.12 3.198-2.46 3.198-2.242 0-2.62-.996-2.62-3.227V8.623h-5.266v13.139c0 4.623 2.363 6.685 7.662 6.685 5.424 0 7.95-2.345 7.95-7.382V8.623h-5.266V21.53zm32.257 2.692v-4.255h6.592V16.22h-6.592V12.4h7.2V8.622h-12.065v15.953c0 .017-.03 1.534 1.031 2.572.662.65 1.608.981 2.808.988 3.7.02 7.753-.109 8.324-.128v-3.786h-7.298zM165.904 8.623l-4.97 19.382h5.188l.73-3.078h5.688l.731 3.078h5.472l-4.907-19.382h-7.932zm1.547 12.642l2.114-8.429h.212l2.163 8.429h-4.489zm59.902-.751l.05-.036c1.694-1.28 2.63-3.26 2.63-5.574 0-4.653-4.197-6.31-8.126-6.31-2.005 0-5.022 0-6.758.056v19.355h5.086V22.1h1.546c.308 0 .598-.016.868-.032l.042-.004.022.033c.845 1.278 1.92 3.336 2.268 5.907h5.565c-.472-2.959-2.177-5.93-3.158-7.442l-.035-.049zm-5.603-2.046c-.64 0-1.06 0-1.45-.028l-.065-.005V12.26l.066-.004c.45-.03 1.038-.03 1.51-.03 2.354 0 2.827 1.284 2.827 3.356.001 1.996-.89 2.886-2.888 2.886z" fill="#DB1830"/></g></svg>