<?xml version="1.0" encoding="UTF-8" standalone="no"?>
<svg width="26px" height="26px" viewBox="0 0 26 26" version="1.1" xmlns="http://www.w3.org/2000/svg" xmlns:xlink="http://www.w3.org/1999/xlink">
    <!-- Generator: Sketch 43.1 (39012) - http://www.bohemiancoding.com/sketch -->
    <title>Combined Shape</title>
    <desc>Created with Sketch.</desc>
    <defs></defs>
    <g id="Page-1" stroke="none" stroke-width="1" fill="none" fill-rule="evenodd">
        <g id="Experiements-Design-proposed-Viewport-1A" transform="translate(-388.000000, -118.000000)" fill-rule="nonzero" fill="#3C9CD7">
            <path d="M398.907738,139.815477 C404.931916,139.815477 409.815477,134.931916 409.815477,128.907738 C409.815477,122.883561 404.931916,118 398.907738,118 C392.883561,118 388,122.883561 388,128.907738 C388,134.931916 392.883561,139.815477 398.907738,139.815477 Z M398.907738,137.298306 C394.273756,137.298306 390.51717,133.541721 390.51717,128.907738 C390.51717,124.273756 394.273756,120.51717 398.907738,120.51717 C403.541721,120.51717 407.298306,124.273756 407.298306,128.907738 C407.298306,133.541721 403.541721,137.298306 398.907738,137.298306 Z M405.272644,137.645855 C404.6173,136.990511 404.6173,135.927988 405.272644,135.272644 C405.927988,134.6173 406.990511,134.6173 407.645855,135.272644 L413.352058,140.978847 C414.007402,141.634191 414.007402,142.696714 413.352058,143.352058 C412.696714,144.007402 411.634191,144.007402 410.978847,143.352058 L405.272644,137.645855 Z" id="Combined-Shape" transform="translate(400.921783, 130.921783) scale(-1, 1) translate(-400.921783, -130.921783) "></path>
        </g>
    </g>
</svg>